<svg data-v-0dd9719b="" version="1.0" xmlns="http://www.w3.org/2000/svg" xmlns:xlink="http://www.w3.org/1999/xlink" width="100%" height="100%" viewBox="0 0 340.000000 250.000000" preserveAspectRatio="xMidYMid meet" color-interpolation-filters="sRGB" style="margin: auto;"> <rect data-v-0dd9719b="" x="0" y="0" width="100%" height="100%" fill="#fcfcfc" fill-opacity="1" class="background"></rect> <rect data-v-0dd9719b="" x="0" y="0" width="100%" height="100%" fill="url(#watermark)" fill-opacity="1" class="watermarklayer"></rect> <g data-v-0dd9719b="" fill="#c05037" class="icon-text-wrapper icon-svg-group iconsvg" transform="translate(47.81999969482422,94.89372444152832)"><g class="iconsvg-imagesvg" transform="translate(0,0)"><g><rect fill="#c05037" fill-opacity="0" stroke-width="2" x="0" y="0" width="60" height="60.21255030256807" class="image-rect"></rect> <svg filter="url(#colors1241613713)" x="0" y="0" width="60" height="60.21255030256807" filtersec="colorsf3457846069" class="image-svg-svg primary" style="overflow: visible;"><svg xmlns="http://www.w3.org/2000/svg" viewBox="-0.006028804928064346 -0.000278472900390625 78.55998992919922 78.83847045898438"><title>资源 19</title><path d="M39.39 0c21.5.08 39.24 17.75 39.16 39A39.28 39.28 0 1 1 0 38.87C.13 17.64 18.09-.08 39.39 0zM21.72 57.81h2.16c10.74.19 21.48.35 32.22.59a17.69 17.69 0 0 0 16.69-10.18 18.3 18.3 0 0 0 .53-1.79c-.59.44-.82.58-1 .76a22.31 22.31 0 0 1-16.12 5.94c-10.34-.09-20.67 0-31 0h-2.6c.66-2.25 1.42-3.45 3.85-3.41 9.57.14 19.16.11 28.73 0a29.48 29.48 0 0 0 7.51-.83c8.87-2.46 13.62-10.73 11.21-19.35A36.33 36.33 0 0 0 63.44 12.7c-1.48-1.38-3.17-2.55-4.76-3.81a2.72 2.72 0 0 0 .43 1.79Q65 21.15 70.83 31.62a5.47 5.47 0 0 1-.43 5.85c-.33-.55-.65-1.07-.94-1.6-4.66-8.28-9.29-16.59-14-24.84-3.1-5.44-10.12-8.74-15.33-7.34 6.37 4 7.68 5.27 10.68 10.62q7.43 13.25 14.86 26.47c1.46 2.6 1.42 2.72-1.58 3.92l-2.19-3.87C57 32 52 23.16 47 14.37c-3.74-6.55-11.84-10.15-18.44-8 8.06 1.6 12.54 6.87 16 13.52C48.72 27.65 53.2 35.26 57.51 43c.56 1 1.09 2 1.82 3.35-1.92-.07-3.46.57-4.55-1.42-4.71-8.57-9.62-17-14.27-25.64C36.57 12 29.8 8.74 22 9.05a9 9 0 0 0-4.69 1.76C9.79 16.5 5.45 24.2 3.8 33.47c-.26 1.44-.32 2.92-.52 4.89 4.64-7.61 8.93-14.68 13.26-21.72a8.69 8.69 0 0 1 6.18-4c-.53.94-.89 1.64-1.3 2.32-4.74 7.92-9.58 15.78-14.17 23.78a22.27 22.27 0 0 0-2.39 6.9C4.22 49 6.19 54.48 8.29 56.27c-.67-5.54.9-10.41 3.75-15.06C17.29 32.64 22.39 24 27.55 15.35c1.46-2.45 1.81-2.51 4.11-.51-.26.47-.5.95-.78 1.41-5.48 9.16-10.94 18.33-16.46 27.46a19.36 19.36 0 0 0-3 9.47c-.16 4.4 1.64 9.34 4.21 11.28-1.9-6.95-.36-13.12 3.39-19C23.19 38.83 27 32 31 25.33c1.47-2.45 3-4.89 4.44-7.33 2.33 2.24 2.37 2.51.92 4.94Q28.58 36 20.8 49a18.63 18.63 0 0 0-2.53 12.62c.69 4.56 2.44 8.77 7 10.69 9.92 4.18 19.85 3.82 29.6-.77a6.59 6.59 0 0 0 1.09-.93h-2.69c-7.46.06-14.92.08-22.37.18-2.51 0-4.14-1.28-6-3.28 1.12-.06 1.78-.12 2.43-.12h13.76c5.34 0 10.68.08 16-.17s11-4.76 12.52-9.36c-6.66 3.27-9.08 4-13.37 3.89l-32-.62c-2.88-.07-3.01-.22-2.52-3.32z" fill="#000000"></path></svg></svg> <defs><filter id="colors1241613713"><feColorMatrix type="matrix" values="0 0 0 0 0.27734375  0 0 0 0 0.2421875  0 0 0 0 0.47265625  0 0 0 1 0" class="icon-fecolormatrix"></feColorMatrix></filter> <filter id="colorsf3457846069"><feColorMatrix type="matrix" values="0 0 0 0 0.99609375  0 0 0 0 0.99609375  0 0 0 0 0.99609375  0 0 0 1 0" class="icon-fecolormatrix"></feColorMatrix></filter> <filter id="colorsb8113456410"><feColorMatrix type="matrix" values="0 0 0 0 0  0 0 0 0 0  0 0 0 0 0  0 0 0 1 0" class="icon-fecolormatrix"></feColorMatrix></filter></defs></g></g> <g transform="translate(67,1.2500247955322266)"><g data-gra="path-name" fill-rule="" class="tp-name iconsvg-namesvg" transform="translate(0,0)"><g transform="scale(1)"><g><path d="M20.39-32.48L20.39-25.27 23.12-25.27 23.12-32.48 20.39-32.48ZM34.58-14.9L34.58-24.04 29.14-24.04 29.14-16.3Q29.14-15.56 29.58-15.56L29.58-15.56 30.41-15.56Q30.98-15.56 31.25-15.91L31.25-15.91Q31.82-16.61 32.92-19.82L32.92-19.82 33.35-19.82 33.53-15.73Q34.28-15.34 34.58-14.9L34.58-14.9ZM10.24-6.5L10.24-1.98 34.58-1.98 34.58-11.56Q33.49-9.8 29.14-9.8L29.14-9.8 27.33-9.8Q24.61-9.8 23.86-10.79 23.12-11.78 23.12-14.63L23.12-14.63 23.12-24.04 20.39-24.04Q20.39-22.02 20.21-20.39 20.04-18.76 19.42-16.66 18.81-14.55 17.78-12.88 16.74-11.21 14.83-9.47 12.92-7.73 10.28-6.46L10.28-6.46 10.24-6.5ZM14.33-24.04L14.33-24.04 10.24-24.04 10.24-7.25Q12.74-10.59 13.54-14.68 14.33-18.76 14.33-24.04ZM42.41-32.48L29.14-32.48 29.14-25.27 34.37-25.27 37.53-28.92 43.15-24.48Q42.63-23.73 41.26-23.47L41.26-23.47 41.26 2.2Q41.26 2.37 40.63 2.77 39.99 3.16 38.65 3.52 37.31 3.87 35.77 3.87L35.77 3.87 34.58 3.87 34.58-0.7 10.24-0.7 10.24 2.46Q10.24 2.68 9.67 3.03 9.1 3.38 7.84 3.71 6.59 4.04 5.1 4.04L5.1 4.04 3.91 4.04 3.91-27.82 10.81-25.27 14.33-25.27 14.33-32.48 1.89-32.48 1.54-33.75 33.62-33.75 37.22-38.19Q41.26-35.24 43.73-33.22L43.73-33.22Q43.51-32.48 42.41-32.48L42.41-32.48ZM80.29-29.84L80.29-29.84 54.23-29.84Q54.8-25.14 52.08-23.16L52.08-23.16Q50.84-22.19 49.22-22.68 47.59-23.16 47.02-24.7L47.02-24.7Q46.54-26.1 47.18-27.29 47.81-28.48 49.13-29.14L49.13-29.14Q50.36-29.88 51.35-31.51 52.34-33.13 52.21-34.85L52.21-34.85 52.69-34.85Q53.75-32.48 54.01-31.11L54.01-31.11 64.03-31.11 64.03-38.5 72.42-37.88Q72.33-36.87 70.8-36.61L70.8-36.61 70.8-31.11 80.02-31.11 83.19-34.23 88.64-29.14Q88.15-28.56 86.88-28.52L86.88-28.52Q83.19-25.4 78.53-23.2L78.53-23.2 78.22-23.51Q79.54-26.85 80.29-29.84ZM72.33-18.81L72.33-18.81 65.26-18.81Q63.68-14.81 61.48-9.67L61.48-9.67Q65.08-9.49 68.73-8.96L68.73-8.96Q71.37-13.01 72.33-18.81ZM65.79-20.08L79.63-20.08 82.84-24.3Q86.48-21.45 88.64-19.51L88.64-19.51Q88.46-18.81 87.36-18.81L87.36-18.81 79.54-18.81Q77.92-11.65 75.23-7.56L75.23-7.56Q83.36-5.23 85.56-1.14L85.56-1.14Q86.88 1.32 85.47 3.03L85.47 3.03Q84.16 4.66 81.74 4.04L81.74 4.04Q81.3 3.91 80.9 3.74L80.9 3.74Q77.48 0.22 71.41-3.34L71.41-3.34Q67.68-0.31 61.7 1.49 55.72 3.3 46.41 4.17L46.41 4.17 46.23 3.6Q60.51 0.26 66.4-6.02L66.4-6.02Q63.19-7.56 60.86-8.39L60.86-8.39Q60.12-6.77 59.55-5.49L59.55-5.49Q58.49-4.97 56.49-5.05 54.49-5.14 52.6-5.93L52.6-5.93Q55.11-10.9 58.27-18.81L58.27-18.81 46.89-18.81 46.54-20.08 58.75-20.08Q61.08-26.1 61.74-28.78L61.74-28.78 70-27.29Q69.79-26.19 68.07-26.15L68.07-26.15Q66.67-22.28 65.79-20.08L65.79-20.08ZM106.52-7.08L106.52 0.79 118.39 0.79 118.39-7.08 106.52-7.08ZM118.39-16.7L118.39-23.91 106.52-23.91 106.52-16.7 118.39-16.7ZM106.52-8.31L118.39-8.31 118.39-15.42 106.52-15.42 106.52-8.31ZM125.9-32.12L128.98-35.2 134.3-30.19Q133.9-29.75 132.54-29.62L132.54-29.62Q129.68-27.29 125.38-25.36L125.38-25.36 127-24.21Q126.43-23.51 124.94-23.25L124.94-23.25 124.94 0.79 125.38 0.79 128.5-3.69Q132.01-0.62 134.03 1.36L134.03 1.36Q133.86 2.07 132.76 2.07L132.76 2.07 91.76 2.07 91.41 0.79 100.24 0.79 100.24-27.64 106.88-25.14 117.95-25.14 120.59-28.56 124.85-25.71Q125.68-28.52 126.17-30.85L126.17-30.85 99.23-30.85Q99.71-26.02 96.86-23.91L96.86-23.91Q95.63-22.94 94.04-23.31 92.46-23.69 91.89-25.14L91.89-25.14Q91.01-27.82 93.87-29.36L93.87-29.36Q95.23-30.19 96.35-31.9 97.47-33.62 97.47-35.46L97.47-35.46 98-35.46Q98.75-33.66 99.05-32.12L99.05-32.12 109.03-32.12 109.03-38.5 117.42-37.88Q117.33-36.87 115.8-36.61L115.8-36.61 115.8-32.12 125.9-32.12ZM148.32-26.46L148.32-20.21 154.03-20.21 154.03-26.46 148.32-26.46ZM154.03-27.73L154.03-33.79 148.32-33.79 148.32-27.73 154.03-27.73ZM166.55-27.73L166.55-33.79 160.58-33.79 160.58-27.73 166.55-27.73ZM160.58-26.46L160.58-20.21 166.55-20.21 166.55-26.46 160.58-26.46ZM177.54-12.3L177.54-12.3 162.03-12.3Q164.71-9.05 169.3-6.75 173.89-4.44 178.9-3.47L178.9-3.47 178.81-2.94Q177.06-2.5 175.78-1.01 174.51 0.48 173.98 2.77L173.98 2.77Q164.75-1.58 161.02-12.3L161.02-12.3 160.58-12.3 160.58 2.5Q160.53 2.72 159.94 3.12 159.35 3.52 158.07 3.89 156.8 4.26 155.26 4.26L155.26 4.26 154.03 4.26 154.03-7.03Q147.52-0.57 136.32 2.86L136.32 2.86 136.01 2.37Q140.54-0.22 144.21-4.13 147.88-8.04 150.03-12.3L150.03-12.3 136.98-12.3 136.63-13.54 154.03-13.54 154.03-18.94 148.32-18.94 148.32-17.93Q148.32-17.4 146.54-16.63 144.76-15.86 142.91-15.86L142.91-15.86 142.03-15.86 142.03-37.62 148.67-35.07 166.11-35.07 168.93-38.06 174.64-33.75Q174.11-33.13 173.06-32.92L173.06-32.92 173.06-18.68Q173.01-18.46 172.16-18.04 171.3-17.62 170-17.25 168.71-16.88 167.65-16.88L167.65-16.88 166.55-16.88 166.55-18.94 160.58-18.94 160.58-13.54 169.1-13.54 172.57-17.84Q176.44-14.99 178.81-13.01L178.81-13.01Q178.64-12.3 177.54-12.3Z" transform="translate(-1.5399999618530273, 38.5)"></path></g> <!----> <!----> <!----> <!----> <!----> <!----> <!----></g></g> <g data-gra="path-slogan" fill-rule="" class="tp-slogan iconsvg-slogansvg" fill="#c05037" transform="translate(57.8799991607666,48.76000213623047)"><!----> <!----> <g transform="scale(1, 1)"><g transform="scale(1)"><path d="M7.64-8.58L4.73-4.41L7.78 0L6.33 0L3.98-3.52L1.64 0L0.23 0L3.33-4.41L0.42-8.58L1.88-8.58L4.03-5.30L6.23-8.58L7.64-8.58ZM9.05-8.58L10.22-8.58L10.22 0L9.05 0L9.05-8.58ZM12.89-5.53L12-5.53L12-8.58L12.89-8.58L12.89-5.53ZM20.11 0L19.27-2.48L15.80-2.48L14.91 0L13.73 0L16.97-8.58L18.28-8.58L21.38 0L20.11 0ZM17.53-7.31L16.17-3.52L18.84-3.52L17.58-7.31L17.53-7.31ZM23.81-8.58L28.13-1.64L28.13-8.58L29.25-8.58L29.25 0L27.94 0L23.58-6.94L23.53-6.94L23.53 0L22.41 0L22.41-8.58L23.81-8.58ZM41.30-8.58L38.06-3.47L38.06 0L36.89 0L36.89-3.47L33.66-8.58L35.02-8.58L37.45-4.45L39.94-8.58L41.30-8.58ZM42.52-8.58L43.69-8.58L43.69 0L42.52 0L42.52-8.58ZM52.08-3.61L49.45-3.61L49.45-4.59L53.20-4.59L53.20 0L52.45 0L52.17-1.08Q51.19 0.09 49.36 0.14L49.36 0.14Q47.63 0.14 46.69-0.75L46.69-0.75Q45.28-2.06 45.33-4.36L45.33-4.36Q45.66-8.63 49.41-8.81L49.41-8.81Q52.59-8.63 53.06-6L53.06-6L51.94-6Q51.47-7.78 49.36-7.83L49.36-7.83Q46.69-7.64 46.55-4.31L46.55-4.31Q46.55-0.75 49.41-0.75L49.41-0.75Q50.44-0.75 51.19-1.31L51.19-1.31Q52.13-2.06 52.08-3.61L52.08-3.61ZM60.66-3.19L60.66-8.58L61.83-8.58L61.83-3.05Q61.69 0.05 58.31 0.14L58.31 0.14Q55.17 0.05 55.03-2.86L55.03-2.86L55.03-8.58L56.20-8.58L56.20-3.19Q56.25-0.84 58.36-0.80L58.36-0.80Q60.66-0.84 60.66-3.19L60.66-3.19Z" transform="translate(-0.234375, 8.8125)"></path></g></g></g></g></g><defs v-gra="od"></defs></svg>